PathFileType	4	(X/Y/Z)	 s06c0401.trc
DataRate	CameraRate	NumFrames	NumMarkers	Units	OrigDataRate	OrigDataStartFrame	OrigNumFrames
200	200	4	48	mm	200	1751	2000
Frame#	Time	racr			lacr			c7			jug			rlel			rdr			llel			ldr			s2			lic			ric			lasi			rasi			rpsi			lpsi			rgt			lgt			rth1			rth2			rth3			rth4			rlfc			rmfc			rsh1			rsh2			rsh3			rsh4			rlmal			rcal			rtoe			rmt5			lth1			lth2			lth4			lth3			llfc			lmfc			llmal			lcal			lmt5			lsh1			lsh2			lsh3			lsh4			ltoe			SBIKE			LBIKE			RBIKE			
		X1	Y1	Z1	X2	Y2	Z2	X3	Y3	Z3	X4	Y4	Z4	X5	Y5	Z5	X6	Y6	Z6	X7	Y7	Z7	X8	Y8	Z8	X9	Y9	Z9	X10	Y10	Z10	X11	Y11	Z11	X12	Y12	Z12	X13	Y13	Z13	X14	Y14	Z14	X15	Y15	Z15	X16	Y16	Z16	X17	Y17	Z17	X18	Y18	Z18	X19	Y19	Z19	X20	Y20	Z20	X21	Y21	Z21	X22	Y22	Z22	X23	Y23	Z23	X24	Y24	Z24	X25	Y25	Z25	X26	Y26	Z26	X27	Y27	Z27	X28	Y28	Z28	X29	Y29	Z29	X30	Y30	Z30	X31	Y31	Z31	X32	Y32	Z32	X33	Y33	Z33	X34	Y34	Z34	X35	Y35	Z35	X36	Y36	Z36	X37	Y37	Z37	X38	Y38	Z38	X39	Y39	Z39	X40	Y40	Z40	X41	Y41	Z41	X42	Y42	Z42	X43	Y43	Z43	X44	Y44	Z44	X45	Y45	Z45	X46	Y46	Z46	X47	Y47	Z47	X48	Y48	Z48	
1751	8.7550	528.982838	1325.171849	-52.601592	543.557312	1324.904396	-381.068834	517.194700	1419.729202	-214.822818	518.725809	1242.267414	-208.689713	507.465426	1066.865843	58.190864	658.166093	911.177348	-49.953456	502.949616	1071.185694	-490.898285	658.787584	924.537488	-399.054999	7.955952	1124.716357	-201.573839	185.227945	1115.053154	-377.600637	169.830165	1088.300919	-48.074227	198.923986	1059.516658	-338.944155	201.916571	1043.861506	-83.998765	44.153164	1165.326304	-171.343687	38.532124	1162.846158	-235.578453	127.901557	1000.099569	-20.991444	158.762966	1058.299464	-406.912332	207.245344	893.082471	-1.827118	277.701973	836.839028	-6.367715	309.248727	755.694806	-17.140119	305.199040	860.034283	-21.218112	349.309538	659.944172	-36.718806	347.283084	638.037180	-147.144133	320.847405	542.773038	-13.428855	321.240773	457.665827	-36.799790	281.622588	380.392151	-42.404748	343.478819	457.929732	-70.296940	256.287733	306.235016	-51.131868	191.238454	301.932631	-101.315772	434.587496	171.246488	-101.504141	337.624209	192.410615	-32.925531	228.299296	970.625719	-413.773609	311.457754	945.116566	-405.414259	329.296489	973.843442	-388.253881	371.932169	879.499473	-402.337783	422.281823	783.763197	-371.831902	417.963843	765.189556	-253.555348	106.445166	588.558703	-375.362721	33.657569	613.608481	-328.134986	142.365167	451.377574	-403.536781	339.089595	718.393187	-396.060991	278.852583	658.441588	-378.383163	196.098582	629.592544	-386.016519	293.278436	641.196366	-347.051888	209.727890	395.200071	-347.232677	-203.701848	870.584530	-212.485976	-48.711815	84.074192	-419.308439	-50.267709	80.184106	-21.731384	
1752	8.7600	529.233321	1325.287848	-52.860081	543.487769	1325.020313	-381.467654	517.202969	1419.885301	-215.171054	518.927095	1242.423079	-209.043793	507.575788	1066.973707	57.981420	658.213017	911.151974	-49.963863	502.904576	1071.071145	-491.060522	658.780581	924.551856	-399.057973	7.930084	1124.761880	-200.812367	185.260633	1115.323138	-377.785061	170.231954	1088.045680	-48.069398	198.648459	1060.595682	-339.134140	200.108927	1043.297952	-86.068718	44.239100	1165.373194	-171.132863	38.595538	1162.959843	-235.347790	127.531172	999.488376	-21.241061	158.807746	1059.839902	-406.775334	206.009398	891.744917	-1.992304	275.800871	834.586774	-6.533769	306.462199	753.168059	-17.379117	303.569237	857.564519	-21.376363	345.685575	657.033416	-36.985290	343.434909	635.146952	-147.440243	317.360328	539.884561	-13.605613	317.835528	454.800499	-36.960664	278.283041	377.447144	-42.464287	340.104755	455.064919	-70.292254	253.248495	303.315872	-51.089534	188.284049	299.615085	-101.422457	430.156387	166.106214	-101.506611	333.398412	188.483780	-32.923099	228.735624	973.187197	-413.708966	312.172184	948.650000	-405.165372	329.606395	977.523248	-387.913940	373.458484	883.750391	-402.284060	425.060537	788.449749	-371.731566	420.919264	769.866301	-253.420911	109.618386	592.247342	-375.371495	36.415976	616.653596	-328.097270	147.327808	455.945565	-404.343811	342.152529	722.892317	-395.937699	281.976836	662.784169	-378.314541	199.286971	633.812202	-386.051109	296.465537	645.436665	-346.973780	214.719325	400.160673	-347.394004	-203.690996	870.584424	-212.477334	-48.723687	84.081409	-419.310645	-50.266958	80.136155	-21.755952	
1753	8.7650	529.485769	1325.462710	-53.151736	543.422643	1325.145717	-381.843991	517.210781	1420.051038	-215.434156	519.067213	1242.560453	-209.438152	507.674377	1067.082300	57.799143	658.219439	911.112118	-50.008774	502.843523	1071.027638	-491.271237	658.747299	924.552578	-399.057197	8.112694	1124.929412	-201.425902	185.284437	1115.597973	-377.997534	170.488385	1087.731700	-48.036396	198.333509	1061.309435	-338.774488	200.492840	1042.929480	-85.805787	44.344054	1165.428754	-170.967177	38.654200	1163.066066	-235.160144	127.328898	999.041607	-21.403459	158.832417	1061.475114	-406.700538	204.914143	890.447820	-1.981492	273.948300	832.518884	-6.653200	303.331853	750.700791	-17.383508	301.986092	855.104839	-21.607269	342.043493	654.078754	-37.289630	339.452336	632.397639	-147.742468	313.896251	537.100435	-13.791386	314.468529	452.201486	-36.948894	275.092155	374.668128	-42.461059	336.697635	452.340129	-70.546954	250.142309	300.597047	-51.140739	185.191301	297.643841	-101.477821	425.591970	161.273573	-101.491054	329.034557	184.755292	-32.921236	229.142552	975.766436	-413.722433	312.809102	952.165594	-404.993792	329.879289	981.189082	-387.517934	374.873689	888.047535	-402.310272	427.743828	793.132882	-371.590306	423.794768	774.444690	-253.150992	112.763627	595.826257	-375.352940	39.186305	619.504882	-328.332160	151.795903	459.979663	-404.276226	345.148591	727.255415	-395.773994	285.081543	666.996639	-378.252731	202.474853	637.841335	-385.996952	299.572862	649.774922	-346.970706	220.249332	405.442965	-347.816611	-203.696127	870.604956	-212.498032	-48.711127	84.077921	-419.306343	-50.247246	80.172574	-21.736187	
1754	8.7700	529.672323	1325.632931	-53.426567	543.336698	1325.277489	-382.246712	517.218532	1420.203044	-215.758812	519.368024	1242.665817	-209.687913	507.775329	1067.175104	57.641348	658.219494	911.085883	-50.015592	502.758474	1070.957679	-491.411254	658.702874	924.571049	-399.056237	8.215441	1125.086973	-201.511123	185.308396	1115.916970	-378.183461	170.786112	1087.640437	-47.990254	197.958677	1062.363953	-338.204356	200.856798	1042.474463	-85.622203	44.396783	1165.496824	-170.779512	38.747568	1163.168143	-235.025299	127.130453	998.554155	-21.622002	158.847338	1063.063438	-406.564006	203.737918	889.272259	-2.050068	272.321061	830.223120	-7.009760	300.680243	748.371675	-17.683872	300.327872	852.764837	-21.653693	338.500283	651.389234	-37.513403	335.568213	629.707572	-148.042856	310.397161	534.460805	-13.925647	311.068160	449.486586	-37.169204	271.793368	371.849882	-42.534167	333.280915	449.744687	-70.707645	246.922467	297.848015	-51.092633	182.096449	295.707870	-101.456167	420.816615	156.440169	-101.499559	324.527653	181.110616	-32.938773	229.445144	978.349028	-413.454301	313.428837	955.627166	-404.697738	330.051928	984.907307	-387.100464	376.291202	892.240227	-402.220943	430.360703	797.789721	-371.380023	426.549385	778.963969	-252.942242	115.846812	599.127654	-375.342522	41.897710	622.045489	-328.320546	156.467495	463.990709	-404.296092	348.045039	731.738019	-395.676408	288.135067	671.208225	-378.219763	205.615039	641.859118	-386.009856	302.652169	653.920728	-346.951960	225.253906	409.872703	-347.268738	-203.705330	870.597422	-212.509248	-48.720990	84.075685	-419.307461	-50.271135	80.166413	-21.741967	
